<?xml version="1.0" encoding="UTF-8" standalone="no"?>
<!-- Created with Inkscape (http://www.inkscape.org/) -->

<!--suppress ALL -->
<svg
   xmlns:dc="http://purl.org/dc/elements/1.1/"
   xmlns:cc="http://creativecommons.org/ns#"
   xmlns:rdf="http://www.w3.org/1999/02/22-rdf-syntax-ns#"
   xmlns:svg="http://www.w3.org/2000/svg"
   xmlns="http://www.w3.org/2000/svg"
   xmlns:sodipodi="http://sodipodi.sourceforge.net/DTD/sodipodi-0.dtd"
   xmlns:inkscape="http://www.inkscape.org/namespaces/inkscape"
   width="64"
   height="64"
   viewBox="0 0 16.933333 16.933334"
   version="1.1"
   id="svg8"
   inkscape:version="0.92.2 (5c3e80d, 2017-08-06)"
   sodipodi:docname="star.svg"
   inkscape:export-filename="C:\Users\Steve\Documents\src\Java\QuickLink\src\star40x40.png"
   inkscape:export-xdpi="60"
   inkscape:export-ydpi="60">
  <defs
     id="defs2">
    <filter
       inkscape:collect="always"
       style="color-interpolation-filters:sRGB"
       id="filter842"
       x="-0.058754706"
       width="1.1175094"
       y="-0.061299224"
       height="1.1225984">
      <feGaussianBlur
         inkscape:collect="always"
         stdDeviation="0.33395223"
         id="feGaussianBlur844" />
    </filter>
  </defs>
  <sodipodi:namedview
     id="base"
     pagecolor="#ffffff"
     bordercolor="#666666"
     borderopacity="1.0"
     inkscape:pageopacity="0.0"
     inkscape:pageshadow="2"
     inkscape:zoom="29.21875"
     inkscape:cx="32"
     inkscape:cy="32"
     inkscape:document-units="mm"
     inkscape:current-layer="layer1"
     showgrid="false"
     units="px"
     inkscape:window-width="3731"
     inkscape:window-height="2120"
     inkscape:window-x="-12"
     inkscape:window-y="-12"
     inkscape:window-maximized="1" />
  <metadata
     id="metadata5">
    <rdf:RDF>
      <cc:Work
         rdf:about="">
        <dc:format>image/svg+xml</dc:format>
        <dc:type
           rdf:resource="http://purl.org/dc/dcmitype/StillImage" />
        <dc:title></dc:title>
      </cc:Work>
    </rdf:RDF>
  </metadata>
  <g
     inkscape:label="Layer 1"
     inkscape:groupmode="layer"
     id="layer1"
     transform="translate(0,-280.06665)">
    <path
       sodipodi:type="inkscape:offset"
       inkscape:radius="0.74109572"
       inkscape:original="M 8.5019531 282.73242 L 6.8886719 286.93945 L 2.3867188 287.09961 L 5.890625 289.93359 L 4.6523438 294.26562 L 8.4296875 291.81055 L 12.164062 294.32617 L 10.996094 289.97461 L 14.544922 287.19922 L 10.046875 286.96484 L 8.5019531 282.73242 z M 8.5 282.82422 L 10.025391 286.99609 L 14.458984 287.22461 L 10.960938 289.96289 L 12.111328 294.25 L 8.4277344 291.77148 L 8.4199219 291.77734 L 4.7070312 294.19141 L 5.9257812 289.92188 L 2.4707031 287.12891 L 6.9121094 286.9707 L 8.5 282.82422 z "
       style="color:#000000;font-style:normal;font-variant:normal;font-weight:normal;font-stretch:normal;font-size:medium;line-height:normal;font-family:sans-serif;font-variant-ligatures:normal;font-variant-position:normal;font-variant-caps:normal;font-variant-numeric:normal;font-variant-alternates:normal;font-feature-settings:normal;text-indent:0;text-align:start;text-decoration:none;text-decoration-line:none;text-decoration-style:solid;text-decoration-color:#000000;letter-spacing:normal;word-spacing:normal;text-transform:none;writing-mode:lr-tb;direction:ltr;text-orientation:mixed;dominant-baseline:auto;baseline-shift:baseline;text-anchor:start;white-space:normal;shape-padding:0;clip-rule:nonzero;display:inline;overflow:visible;visibility:visible;opacity:1;isolation:auto;mix-blend-mode:normal;color-interpolation:sRGB;color-interpolation-filters:linearRGB;solid-color:#000000;solid-opacity:1;vector-effect:none;fill:#00000a;fill-opacity:1;fill-rule:nonzero;stroke:none;stroke-width:0;stroke-linecap:butt;stroke-linejoin:miter;stroke-miterlimit:4;stroke-dasharray:none;stroke-dashoffset:0;stroke-opacity:1;color-rendering:auto;image-rendering:auto;shape-rendering:auto;text-rendering:auto;enable-background:accumulate;filter:url(#filter842)"
       id="path10"
       d="m 8.5175781,281.99219 a 0.74116983,0.74116983 0 0 0 -0.7070312,0.47461 l -1.4375,3.75 -4.0117188,0.14258 a 0.74116983,0.74116983 0 0 0 -0.4414062,1.3164 l 3.1230469,2.52539 -1.1035157,3.86133 a 0.74116983,0.74116983 0 0 0 1.1171875,0.82422 l 3.3652344,-2.1875 3.328125,2.24219 a 0.74116983,0.74116983 0 0 0 1.128906,-0.80664 l -1.039062,-3.87891 3.162109,-2.47266 a 0.74116983,0.74116983 0 0 0 -0.417969,-1.32422 L 10.574219,286.25 9.1972656,282.47852 a 0.74116983,0.74116983 0 0 0 -0.6796875,-0.48633 z m -0.033203,2.94531 0.8457031,2.3125 a 0.74116983,0.74116983 0 0 0 0.65625,0.48633 l 2.4550779,0.12695 -1.9375,1.51563 a 0.74116983,0.74116983 0 0 0 -0.257812,0.77539 l 0.636718,2.375 -2.0410151,-1.37305 a 0.74116983,0.74116983 0 0 0 -0.859375,0.0215 l -2.0195313,1.3125 0.6757813,-2.36523 a 0.74116983,0.74116983 0 0 0 -0.2460938,-0.7793 l -1.9140625,-1.54687 2.4609375,-0.0879 a 0.74116983,0.74116983 0 0 0 0.6640625,-0.47461 z" />
  </g>
  <g
     transform="translate(0,-280.06665)"
     id="g14"
     inkscape:groupmode="layer"
     inkscape:label="Layer 1 copy"
     style="display:inline">
    <path
       transform="rotate(36.468053,0.00320128,292.88074)"
       inkscape:transform-center-y="-1.5656229"
       inkscape:transform-center-x="-0.7360369"
       d="m 6.1307723,286.99519 -1.566553,4.19024 -1.56704,-4.19005 -4.4692388,-0.19503 3.500732,-2.78514 -1.19558845,-4.31077 3.73061135,2.46874 3.7303244,-2.46917 -1.1950873,4.3109 3.5010555,2.78474 z"
       inkscape:randomized="0"
       inkscape:rounded="0"
       inkscape:flatsided="false"
       sodipodi:arg2="1.5707382"
       sodipodi:arg1="0.94241964"
       sodipodi:r2="6.3466511"
       sodipodi:r1="2.6655934"
       sodipodi:cy="284.83878"
       sodipodi:cx="4.5638504"
       sodipodi:sides="5"
       id="path12"
       style="fill:#44aa00;fill-opacity:1;stroke:#0000ff;stroke-width:0;stroke-miterlimit:4;stroke-dasharray:none"
       sodipodi:type="star" />
  </g>
</svg>
